#!OML:ASF F:\VICON\USERDATA\INSTALL\rory3\rory3.ASF
:FULLY-SPECIFIED
:DEGREES
165
root -12.7131 17.6339 -3.39971 -62.7849 88.9296 -60.0843
lowerback 14.6265 0.232699 -3.04934
upperback 0.9486 -0.0485175 1.11674
thorax -7.20024 0.118464 2.92522
lowerneck -16.2906 -9.58415 -13.8534
upperneck 29.674 -12.96 11.534
head 14.7599 -5.5143 4.74912
rclavicle 1.89467e-016 1.48436e-014
rhumerus -38.9209 -18.2492 -73.2184
rradius 35.4869
rwrist 7.43374
rhand -17.0694 5.78
rfingers 7.12502
rthumb 9.16841 -24.0007
lclavicle 1.89467e-016 1.48436e-014
lhumerus -35.8141 4.30042 79.3576
lradius 35.8028
lwrist -3.68333
lhand -18.0992 26.4259
lfingers 7.12502
lthumb 8.17461 56.2478
rfemur -14.5446 -4.88801 9.3957
rtibia 43.1348
rfoot -15.9156 -0.466473
rtoes -1.09151
lfemur -5.87218 -6.07212 -17.6931
ltibia 28.4801
lfoot -16.892 -8.212
ltoes -1.45665
166
root -12.7081 17.6294 -3.3341 -71.5666 88.696 -68.8011
lowerback 14.5925 0.260689 -2.76608
upperback 0.949674 0.0427128 1.19893
thorax -7.18665 0.155001 2.8329
lowerneck -16.2381 -9.6407 -13.7047
upperneck 29.6704 -13.06 11.4309
head 14.7402 -5.55363 4.66053
rclavicle 5.10356e-016 -1.9894e-015
rhumerus -39.0761 -18.5758 -73.0081
rradius 35.3763
rwrist 7.46242
rhand -17.154 5.49281
rfingers 7.12502
rthumb 9.08672 -24.2915
lclavicle 5.10356e-016 -1.9894e-015
lhumerus -35.7726 4.43856 79.2407
lradius 35.696
lwrist -4.04142
lhand -17.6052 26.0799
lfingers 7.12502
lthumb 8.65139 55.8826
rfemur -13.9746 -4.36992 9.02473
rtibia 42.4799
rfoot -15.4924 -1.28741
rtoes 0.238791
lfemur -5.67989 -6.27673 -17.1824
ltibia 28.2668
lfoot -16.8736 -8.02431
ltoes -1.62912
167
root -12.7014 17.6321 -3.26929 -71.1516 88.9152 -68.3201
lowerback 14.5749 0.405669 -2.92948
upperback 0.932765 0.202202 1.12938
thorax -7.20651 0.236841 2.8188
lowerneck -16.1487 -9.73194 -13.5454
upperneck 29.6448 -13.2347 11.3849
head 14.7194 -5.61699 4.57963
rclavicle -9.23262e-016 -4.15118e-015
rhumerus -39.3765 -19.2005 -72.6318
rradius 35.2962
rwrist 7.58459
rhand -17.4522 5.2419
rfingers 7.12502
rthumb 8.79902 -24.5547
lclavicle -9.23262e-016 -4.15118e-015
lhumerus -35.7105 4.15397 79.2461
lradius 35.6359
lwrist -4.10968
lhand -18.1833 27.1385
lfingers 7.12502
lthumb 8.09347 56.9635
rfemur -13.3309 -3.75835 8.11362
rtibia 41.6337
rfoot -14.8156 -2.00524
rtoes 2.33117
lfemur -5.52823 -6.47015 -17.1983
ltibia 28.1678
lfoot -16.7786 -8.18643
ltoes 0.34434
168
root -12.6957 17.6312 -3.20832 -17.1365 89.7768 -14.3071
lowerback 14.5193 0.528497 -3.85415
upperback 0.878661 0.195816 0.914428
thorax -7.23603 0.260417 3.11629
lowerneck -16.0743 -9.74739 -13.4358
upperneck 29.5974 -13.2708 11.3176
head 14.6707 -5.63064 4.52576
rclavicle -2.86529e-015 4.79568e-015
rhumerus -39.6468 -19.4527 -72.2679
rradius 35.2776
rwrist 7.4239
rhand -17.488 5.32294
rfingers 7.12502
rthumb 8.76444 -24.4751
lclavicle -2.86529e-015 4.79568e-015
lhumerus -35.7359 3.82068 79.3214
lradius 35.6001
lwrist -3.77876
lhand -19.3569 29.168
lfingers 7.12502
lthumb 6.96061 59.0335
rfemur -12.8189 -3.43801 6.31586
rtibia 40.9912
rfoot -14.152 -2.31237
rtoes 4.0916
lfemur -5.41929 -6.86548 -18.0677
ltibia 27.9828
lfoot -16.5774 -8.2102
ltoes 1.82642
169
root -12.67 17.6459 -3.09649 -86.5584 87.8001 -82.9378
lowerback 15.0136 0.46051 -2.32434
upperback 1.11181 0.419213 1.6685
thorax -7.27422 0.335925 3.00654
lowerneck -16.0026 -9.72299 -13.3908
upperneck 29.5157 -13.2312 11.2643
head 14.6016 -5.61937 4.50287
rclavicle 5.59082e-016 1.26725e-015
rhumerus -39.8075 -19.6436 -71.9651
rradius 35.1962
rwrist 7.37458
rhand -17.4865 5.48222
rfingers 7.12502
rthumb 8.76587 -24.3157
lclavicle 5.59082e-016 1.26725e-015
lhumerus -35.7907 3.71716 79.3225
lradius 35.5511
lwrist -3.65155
lhand -19.5706 29.6749
lfingers 7.12502
lthumb 6.75435 59.5472
rfemur -11.2611 -2.05024 8.32595
rtibia 40.1636
rfoot -13.5048 -3.54411
rtoes 6.55782
lfemur -4.44212 -6.85296 -15.3614
ltibia 27.8561
lfoot -16.6911 -8.66894
ltoes 2.27439
170
root -12.6846 17.6303 -3.06981 -67.2592 89.4359 -64.4667
lowerback 14.3071 0.523715 -3.47385
upperback 0.830823 0.275864 1.16948
thorax -7.17492 0.289971 3.15574
lowerneck -16.0219 -9.69983 -13.5672
upperneck 29.5025 -13.1559 11.3105
head 14.608 -5.60153 4.56623
rclavicle 1.84497e-015 -1.5207e-014
rhumerus -39.8058 -19.8355 -71.6622
rradius 35.0072
rwrist 7.51613
rhand -17.6282 5.52332
rfingers 7.12502
rthumb 8.62919 -24.2803
lclavicle 1.84497e-015 -1.5207e-014
lhumerus -35.7849 4.05002 79.219
lradius 35.4471
lwrist -3.90535
lhand -18.7024 28.5316
lfingers 7.12502
lthumb 7.59237 58.3753
rfemur -11.8526 -2.4809 5.57294
rtibia 39.5924
rfoot -12.3346 -3.03529
rtoes 8.16946
lfemur -5.25465 -7.21725 -17.0417
ltibia 27.6754
lfoot -16.2941 -8.35077
ltoes 2.18878
171
root -12.6794 17.6334 -3.00197 -71.427 89.2355 -68.7289
lowerback 14.0973 0.501436 -3.28995
upperback 0.814105 0.290955 1.29742
thorax -7.07654 0.291375 3.18393
lowerneck -16.0608 -9.65487 -13.737
upperneck 29.5018 -13.0565 11.3817
head 14.6218 -5.56838 4.64433
rclavicle 1.49089e-015 -5.66536e-015
rhumerus -39.8181 -20.0894 -71.4137
rradius 34.8824
rwrist 7.68631
rhand -17.7179 5.42287
rfingers 7.12502
rthumb 8.54262 -24.3843
lclavicle 1.49089e-015 -5.66536e-015
lhumerus -35.7549 4.40382 79.0751
lradius 35.3206
lwrist -4.13305
lhand -17.6418 27.5712
lfingers 7.12502
lthumb 8.61598 57.3754
rfemur -11.4393 -2.06759 5.24455
rtibia 38.8224
rfoot -11.0617 -3.52398
rtoes 9.11638
lfemur -5.25476 -7.54641 -16.5093
ltibia 27.596
lfoot -16.017 -8.53923
ltoes 2.64819
172
root -12.6753 17.6332 -2.93183 -79.0905 89.222 -76.4786
lowerback 13.9023 0.473208 -3.14416
upperback 0.811484 0.278811 1.26308
thorax -6.96825 0.277696 3.06584
lowerneck -16.1197 -9.6517 -13.7024
upperneck 29.5031 -13.0956 11.5014
head 14.6507 -5.56315 4.68007
rclavicle -1.21756e-015 3.37934e-015
rhumerus -39.9156 -20.4946 -71.2574
rradius 34.8203
rwrist 7.83152
rhand -17.5485 5.25126
rfingers 7.12502
rthumb 8.70605 -24.5492
lclavicle -1.21756e-015 3.37934e-015
lhumerus -35.6709 4.47174 78.8595
lradius 35.2363
lwrist -4.15243
lhand -16.7597 26.8798
lfingers 7.12502
lthumb 9.46723 56.6472
rfemur -11.0725 -1.58402 4.75856
rtibia 38.2737
rfoot -10.0314 -4.12422
rtoes 10.5817
lfemur -5.24355 -7.63435 -16.1844
ltibia 27.356
lfoot -15.9527 -8.56222
ltoes 1.22589
173
root -12.6698 17.618 -2.85303 -83.5538 89.2048 -80.907
lowerback 13.8496 0.486115 -3.0313
upperback 0.803019 0.309502 1.19535
thorax -6.94907 0.287457 2.92322
lowerneck -16.1014 -9.65695 -13.5624
upperneck 29.4851 -13.1831 11.6134
head 14.6516 -5.56968 4.68667
rclavicle 1.38217e-015 -2.6339e-015
rhumerus -40.0982 -20.9313 -71.0879
rradius 34.7339
rwrist 7.80429
rhand -17.5277 5.17103
rfingers 7.12502
rthumb 8.72614 -24.6286
lclavicle 1.38217e-015 -2.6339e-015
lhumerus -35.694 4.42284 78.6196
lradius 35.2833
lwrist -4.23545
lhand -15.7246 26.2892
lfingers 7.12502
lthumb 10.4659 56.0087
rfemur -10.4719 -0.957892 4.24335
rtibia 37.529
rfoot -9.25582 -4.62695
rtoes 13.6709
lfemur -5.15259 -7.29542 -15.92
ltibia 27.1579
lfoot -16.4051 -8.09737
ltoes -3.86604
174
root -12.6613 17.6036 -2.76958 -84.0982 89.1048 -81.3101
lowerback 13.9283 0.522303 -2.94022
upperback 0.794224 0.370456 1.20369
thorax -7.00644 0.31569 2.86861
lowerneck -16.1093 -9.63007 -13.4577
upperneck 29.5181 -13.2008 11.6917
head 14.6694 -5.55256 4.70092
rclavicle 2.9973e-015 2.18663e-015
rhumerus -40.2611 -21.2875 -70.8702
rradius 34.5748
rwrist 7.79107
rhand -17.7184 5.19389
rfingers 7.12502
rthumb 8.54211 -24.6133
lclavicle 2.9973e-015 2.18663e-015
lhumerus -35.7459 4.42598 78.449
lradius 35.2559
lwrist -4.28303
lhand -14.8328 25.4755
lfingers 7.12502
lthumb 11.326 55.1497
rfemur -9.7583 -0.0783147 3.87853
rtibia 36.7421
rfoot -8.63055 -5.34232
rtoes 16.3601
lfemur -4.90743 -7.11144 -15.5807
ltibia 26.9846
lfoot -16.8733 -7.45613
ltoes -9.14958
175
root -12.6508 17.6011 -2.68501 -87.4504 88.9939 -84.5908
lowerback 13.95 0.520456 -2.89724
upperback 0.734753 0.377467 1.26799
thorax -7.08308 0.320503 2.91173
lowerneck -16.0788 -9.58857 -13.3374
upperneck 29.5713 -13.1605 11.6308
head 14.6627 -5.52794 4.66707
rclavicle -4.22417e-016 -9.34288e-015
rhumerus -40.399 -21.1886 -70.7132
rradius 34.3967
rwrist 7.62003
rhand -17.9231 5.20016
rfingers 7.12502
rthumb 8.34456 -24.615
lclavicle -4.22417e-016 -9.34288e-015
lhumerus -35.8689 4.5651 78.2964
lradius 35.2065
lwrist -4.28836
lhand -14.0811 24.6949
lfingers 7.12502
lthumb 12.0509 54.3279
rfemur -9.09356 0.838123 3.62732
rtibia 35.9447
rfoot -8.1333 -6.33779
rtoes 17.12
lfemur -4.70445 -7.28926 -15.1908
ltibia 26.8337
lfoot -17.0088 -7.13089
ltoes -10.9307
176
root -12.6418 17.606 -2.60724 -90.0016 88.8922 -87.207
lowerback 13.8498 0.472579 -2.77263
upperback 0.655453 0.33831 1.33099
thorax -7.10872 0.29907 2.91597
lowerneck -16.021 -9.51001 -13.1918
upperneck 29.5367 -13.036 11.4671
head 14.5836 -5.48175 4.59916
rclavicle -1.42255e-015 -1.01877e-014
rhumerus -40.4277 -20.8797 -70.6309
rradius 34.199
rwrist 7.47162
rhand -18.0845 4.98304
rfingers 7.12502
rthumb 8.18879 -24.8383
lclavicle -1.42255e-015 -1.01877e-014
lhumerus -36.0151 4.67164 78.1737
lradius 35.1941
lwrist -4.25943
lhand -13.2519 24.0726
lfingers 7.12502
lthumb 12.8504 53.657
rfemur -8.50502 1.43774 3.36035
rtibia 35.0586
rfoot -7.7387 -7.13324
rtoes 16.5208
lfemur -4.67563 -7.492 -14.7815
ltibia 26.7603
lfoot -16.9594 -7.28828
ltoes -9.58784
177
root -12.6389 17.5923 -2.53454 -90.1918 89.0056 -87.5312
lowerback 13.7284 0.495308 -2.73221
upperback 0.558795 0.373095 1.31496
thorax -7.14638 0.315006 2.86917
lowerneck -15.9922 -9.48484 -13.2146
upperneck 29.5185 -12.9594 11.368
head 14.5486 -5.46567 4.57668
rclavicle 2.73329e-016 1.14301e-014
rhumerus -40.5411 -21.0594 -70.3965
rradius 34.0511
rwrist 7.56689
rhand -18.2251 4.69574
rfingers 7.12502
rthumb 8.05308 -25.1308
lclavicle 2.73329e-016 1.14301e-014
lhumerus -36.0654 4.50264 78.229
lradius 35.148
lwrist -4.06182
lhand -12.8055 23.8033
lfingers 7.12502
lthumb 13.2807 53.3602
rfemur -8.0515 1.75597 2.78158
rtibia 34.198
rfoot -7.28898 -7.46072
rtoes 16.3419
lfemur -4.74628 -7.66958 -14.6234
ltibia 26.643
lfoot -16.9106 -7.19841
ltoes -9.08977
